<svg xmlns="http://www.w3.org/2000/svg" xmlns:xlink="http://www.w3.org/1999/xlink" width="2000" zoomAndPan="magnify" viewBox="0 0 1500 1499.999933" height="2000" preserveAspectRatio="xMidYMid meet" version="1.0"><defs><g/><clipPath id="6c75ab765e"><rect x="0" width="1057" y="0" height="239"/></clipPath><clipPath id="4a646d2f95"><rect x="0" width="113" y="0" height="31"/></clipPath><clipPath id="d5f632a8ea"><rect x="0" width="157" y="0" height="59"/></clipPath></defs><g transform="matrix(1, 0, 0, 1, 217, 610)"><g clip-path="url(#6c75ab765e)"><g fill="#222222" fill-opacity="1"><g transform="translate(3.936889, 202.038914)"><g><path d="M 17.40625 0.234375 L 35.28125 -17.171875 L 18.8125 -1.40625 L 13.875 -11.515625 L 59.96875 -58.5625 L 18.34375 -19.515625 L 19.046875 -36.6875 L 88.421875 -105.828125 L 102.296875 -102.0625 L 106.53125 -106.296875 L 123.46875 -103.703125 L 125.578125 -105.828125 L 141.578125 -107.46875 L 95.015625 -58.5625 L 81.140625 -60.203125 L 107.703125 -87.484375 L 76.90625 -58.796875 L 65.84375 -58.5625 L 65.140625 -46.328125 L 65.84375 -47.03125 L 64.90625 -28.21875 L 36.21875 0.46875 Z M 15.75 -55.5 L 20.453125 -59.96875 L 24.921875 -71.015625 L 65.609375 -115.234375 L 65.84375 -105.828125 L 67.734375 -104.1875 L 70.078125 -106.53125 L 90.546875 -109.828125 L 18.578125 -36.6875 Z M 18.8125 -117.828125 L 11.765625 -116.640625 L 55.5 -164.15625 L 72.4375 -162.734375 L 74.078125 -164.625 L 87.25 -165.09375 L 19.28125 -92.1875 L 21.171875 -105.828125 L 55.734375 -144.15625 L 18.8125 -110.53125 Z M 85.609375 -119.46875 L 120.40625 -156.15625 L 81.375 -118.296875 L 67.96875 -117.828125 L 111.46875 -165.09375 L 129.578125 -164.859375 L 129.34375 -164.625 L 144.859375 -163.4375 L 99.25 -117.34375 Z M 100.890625 -116.640625 L 147.921875 -164.625 L 166.734375 -164.859375 L 166.5 -164.625 L 171.671875 -164.625 L 170.03125 -154.03125 L 135.21875 -118.0625 L 119.234375 -119.46875 L 117.34375 -117.828125 Z M 2.109375 -146.515625 L 20.21875 -164.15625 L 34.328125 -165.328125 L 2.828125 -130.75 L 38.328125 -165.328125 L 56.203125 -166.03125 L 7.53125 -117.578125 L 1.171875 -117.828125 L -1.171875 -126.75 L 1.640625 -129.578125 Z M 21.171875 -87.71875 L 93.125 -164.625 L 110.296875 -165.796875 L 18.109375 -73.609375 Z M 143.921875 -105.828125 L 148.390625 -106.0625 L 149.328125 -94.78125 L 112.875 -59.03125 L 97.828125 -60.671875 Z M 148.625 -59.265625 L 133.34375 -58.796875 L 146.984375 -72.90625 L 131.9375 -59.265625 L 116.640625 -59.03125 L 148.625 -91.953125 L 149.09375 -74.78125 L 147.921875 -73.609375 Z M 137.8125 -118.296875 L 171.4375 -152.625 L 171.4375 -135.6875 L 154.515625 -117.578125 Z M 38.5625 -1.40625 L 65.84375 -27.515625 L 66.3125 -11.765625 L 54.328125 -0.703125 Z M 0.703125 -148.15625 L 2.109375 -165.328125 L 18.578125 -165.5625 Z M 171.90625 -118.0625 L 155.21875 -117.109375 L 172.140625 -133.578125 Z M 65.609375 0.234375 L 56.203125 0.46875 L 65.609375 -9.640625 Z M 65.609375 -117.828125 L 65.609375 -115.234375 L 67.96875 -117.828125 Z M 65.609375 -117.828125 "/></g></g></g><g fill="#222222" fill-opacity="1"><g transform="translate(158.644929, 202.038914)"><g><path d="M 8.46875 -16.46875 L 33.15625 -40.6875 L 11.765625 -20.453125 L 14.578125 -35.984375 L 59.265625 -84.1875 L 59.03125 -64.90625 L 58.796875 -64.671875 L 59.96875 -48.921875 L 58.09375 -47.03125 L 58.796875 -32.21875 L 27.75 -0.703125 L 13.640625 -2.59375 L 51.5 -40.6875 L 11.515625 -1.640625 Z M 48.453125 -164.625 L 58.796875 -164.625 L 55.96875 -159.921875 L 20.453125 -121.8125 L 59.265625 -156.390625 L 56.671875 -140.390625 L 11.515625 -92.65625 L 9.40625 -111.703125 L 10.8125 -113.125 L 9.640625 -128.171875 L 14.109375 -132.40625 L 10.8125 -129.34375 L 12.46875 -145.578125 L 30.578125 -164.859375 L 47.734375 -163.921875 Z M 10.34375 -72.90625 L 59.265625 -120.875 L 60.671875 -103.953125 L 12.234375 -56.90625 Z M 9.171875 -88.421875 L 59.03125 -138.046875 L 58.09375 -119.9375 L 11.28125 -75.25 Z M 11.515625 -55.265625 L 59.03125 -101.59375 L 56.4375 -87.25 L 11.765625 -37.625 Z M 30.34375 0.9375 L 58.796875 -28.6875 L 59.03125 -12.234375 L 46.328125 -0.46875 Z M 11.515625 -147.921875 L 11.765625 -164.625 L 28.921875 -164.625 Z M 59.03125 -0.234375 L 47.96875 0.234375 L 58.796875 -10.34375 Z M 59.03125 -0.234375 "/></g></g></g><g fill="#222222" fill-opacity="1"><g transform="translate(209.89784, 202.038914)"><g><path d="M 63.96875 -82.3125 L 147.6875 -164.15625 L 165.09375 -166.734375 L 117.34375 -117.578125 L 113.359375 -117.578125 L 115.234375 -113.828125 L 97.59375 -96.65625 L 113.828125 -111.234375 L 111.234375 -95.25 L 66.078125 -47.5 L 63.96875 -66.546875 L 66.3125 -68.671875 Z M 0.234375 -146.28125 L 19.515625 -165.328125 L 35.046875 -162.96875 L 23.515625 -151.453125 L 37.859375 -164.15625 L 51.734375 -162.96875 L 14.578125 -124.875 L 56.90625 -164.390625 L 70.3125 -162.265625 L 26.578125 -117.109375 L 7.53125 -117.578125 L 1.40625 -117.578125 L -1.171875 -129.578125 L 0.9375 -131.46875 Z M 68.4375 -103.703125 L 89.125 -124.171875 L 66.078125 -103 L 66.078125 -116.40625 L 110.53125 -165.09375 L 127 -161.796875 L 129.34375 -164.15625 L 143.921875 -168.140625 L 65.375 -83.953125 Z M 67.96875 -28.21875 L 107.703125 -70.3125 L 66.078125 -29.859375 L 63.03125 -44.453125 L 113.359375 -93.59375 L 114.53125 -76.90625 L 112.640625 -75.015625 L 111.703125 -58.796875 L 65.375 -11.515625 Z M 166.03125 -164.390625 L 178.03125 -164.625 L 178.96875 -160.390625 L 172.609375 -154.03125 L 177.3125 -158.5 L 177.796875 -141.8125 L 153.328125 -117.578125 L 137.578125 -119 L 136.171875 -117.578125 L 118.296875 -117.578125 Z M 44.21875 -115 L 92.890625 -165.328125 L 107.46875 -167.203125 L 62.796875 -118.296875 Z M 30.109375 -119 L 74.78125 -164.625 L 90.3125 -166.265625 L 43.984375 -117.34375 Z M 66.078125 0.234375 L 66.078125 -8.46875 L 113.125 -57.859375 L 111 -40.6875 L 72.90625 0 Z M 75.25 -1.640625 L 113.59375 -38.796875 L 113.828125 -22.8125 L 90.546875 -0.234375 Z M 156.625 -117.828125 L 178.734375 -139.453125 L 177.796875 -123.46875 L 172.609375 -117.34375 Z M 93.359375 -0.46875 L 112.875 -20.9375 L 113.125 -3.765625 L 110.0625 0 Z M 1.640625 -147.921875 L 2.109375 -164.15625 L 18.34375 -165.09375 Z M 178.03125 -117.578125 L 173.796875 -117.578125 L 178.03125 -121.8125 Z M 113.125 0 L 111 0 L 113.125 -1.875 Z M 66.078125 -117.578125 L 65.375 -115.703125 L 66.078125 -116.40625 Z M 66.078125 -117.578125 "/></g></g></g><g fill="#222222" fill-opacity="1"><g transform="translate(369.778656, 202.038914)"><g><path d="M 94.53125 -45.15625 L 95.71875 -46.328125 L 91.953125 -52.671875 L 124.171875 -86.3125 L 129.109375 -78.78125 L 129.578125 -89.125 L 176.609375 -138.75 L 181.546875 -120.640625 L 174.96875 -114.53125 L 171.90625 -100.65625 L 136.875 -64.4375 L 175.671875 -101.828125 L 178.96875 -85.125 L 173.5625 -79.71875 L 177.078125 -83.015625 L 173.328125 -66.78125 L 129.8125 -21.171875 L 176.375 -65.140625 L 176.375 -47.265625 L 128.875 -0.9375 L 120.875 -11.765625 L 113.359375 -21.40625 L 102.765625 -31.75 L 104.421875 -33.390625 Z M 15.984375 -106.296875 L 69.609375 -159.6875 L 79.71875 -152.15625 L 60.203125 -132.640625 L 77.84375 -149.5625 L 82.3125 -135.6875 L 18.109375 -74.3125 L 16.703125 -90.78125 L 19.046875 -93.125 Z M 17.40625 -38.328125 L 18.578125 -39.28125 L 21.640625 -56.90625 L 92.890625 -127.703125 L 99.953125 -118.765625 L 66.3125 -84.890625 L 65.84375 -85.84375 L 64.671875 -86.546875 L 33.625 -53.390625 L 66.3125 -83.484375 L 67.5 -67.5 L 18.8125 -18.8125 Z M 165.796875 -164.390625 L 176.375 -164.625 L 178.5 -157.328125 L 176.140625 -155.21875 L 173.5625 -141.109375 L 129.109375 -93.125 L 127.46875 -110.53125 L 129.8125 -112.875 L 128.875 -130.28125 L 129.34375 -130.75 L 129.34375 -145.09375 L 147.921875 -164.625 L 162.96875 -165.5625 L 134.28125 -135.21875 Z M 15.984375 -15.75 L 65.609375 -64.90625 L 62.796875 -50.09375 L 30.8125 -13.875 L 66.546875 -45.859375 L 67.03125 -30.578125 L 36.6875 0 L 20.9375 -2.59375 L 19.046875 -0.46875 Z M 132.171875 1.640625 L 176.375 -46.796875 L 178.265625 -30.578125 L 175.671875 -27.984375 L 175.671875 -11.515625 L 164.390625 -0.703125 L 147.921875 -1.875 L 146.28125 -0.234375 Z M 20.6875 -72.4375 L 85.125 -138.28125 L 88.890625 -132.171875 L 18.8125 -55.734375 Z M 56.4375 -164.625 L 65.84375 -164.625 L 67.734375 -159.453125 L 18.8125 -110.53125 L 19.046875 -117.828125 L 10.109375 -118.0625 Z M 0.9375 -117.578125 L 1.171875 -126.515625 L 37.390625 -164.625 L 56.4375 -166.03125 L 7.53125 -117.578125 Z M 0.46875 -146.984375 L 1.875 -148.15625 L 1.40625 -164.625 L 17.40625 -163.921875 L 12.703125 -158.96875 L 18.8125 -164.859375 L 34.09375 -162.265625 L 1.40625 -129.578125 Z M 67.96875 -86.078125 L 100.890625 -117.828125 L 107.234375 -107.234375 L 74.546875 -74.3125 Z M 82.546875 -61.609375 L 116.640625 -97.125 L 124.875 -89.125 L 89.59375 -53.859375 Z M 76.203125 -73.375 L 108.890625 -107.46875 L 114.53125 -99.25 L 82.3125 -64.4375 Z M 38.5625 0.703125 L 65.84375 -28.453125 L 65.84375 -11.515625 L 54.5625 -0.46875 Z M 130.046875 -147.453125 L 129.8125 -164.859375 L 146.046875 -165.09375 Z M 176.375 0.234375 L 166.03125 0 L 176.375 -10.109375 Z M 66.078125 -0.234375 L 55.96875 0.234375 L 66.078125 -9.875 Z M 66.078125 -0.234375 "/></g></g></g><g fill="#222222" fill-opacity="1"><g transform="translate(538.594239, 202.038914)"><g><path d="M 22.578125 -1.640625 L 62.5625 -43.5 L 18.8125 -1.40625 L 13.875 -11.515625 L 59.96875 -58.5625 L 18.34375 -19.515625 L 19.046875 -36.6875 L 88.421875 -105.828125 L 102.296875 -102.0625 L 106.53125 -106.296875 L 123.46875 -103.703125 L 125.578125 -105.828125 L 141.578125 -107.46875 L 95.015625 -58.5625 L 81.140625 -60.203125 L 107.703125 -87.484375 L 76.90625 -58.796875 L 65.84375 -58.5625 L 65.140625 -46.09375 L 65.84375 -46.796875 L 82.078125 -45.625 L 66.3125 -29.625 L 84.421875 -46.796875 L 103.234375 -48.203125 L 78.546875 -23.75 L 103.234375 -47.265625 L 116.875 -47.96875 L 85.609375 -14.109375 L 121.8125 -47.5 L 139.6875 -48.203125 L 91.015625 0.234375 L 74.78125 -2.359375 L 72.671875 0 L 55.265625 -0.703125 L 55.03125 -0.46875 L 37.625 -0.9375 L 36.453125 0.46875 Z M 0 -145.09375 L 19.515625 -164.859375 L 35.75 -162.265625 L 38.328125 -165.09375 L 56.90625 -165.09375 L 55.734375 -164.15625 L 72.4375 -162.734375 L 74.078125 -164.625 L 87.25 -165.09375 L 19.28125 -92.1875 L 21.171875 -105.828125 L 55.734375 -144.15625 L 18.8125 -110.53125 L 18.8125 -117.828125 L 11.765625 -116.640625 L 51.96875 -160.390625 L 7.53125 -117.578125 L 1.171875 -117.578125 L 3.296875 -126.515625 L 34.5625 -161.09375 L 0.46875 -129.8125 Z M 15.75 -55.5 L 20.453125 -59.96875 L 24.921875 -71.015625 L 65.609375 -115.234375 L 65.84375 -105.828125 L 67.734375 -104.1875 L 70.078125 -106.53125 L 90.546875 -109.828125 L 18.578125 -36.6875 Z M 92.890625 1.171875 L 139.921875 -46.796875 L 158.734375 -47.265625 L 158.5 -47.03125 L 171.671875 -47.03125 L 172.609375 -44.921875 L 128.40625 0.46875 L 110.0625 -0.703125 L 109.359375 0 Z M 79.71875 -116.171875 L 101.125 -137.34375 L 81.375 -118.296875 L 67.96875 -117.828125 L 111.46875 -165.09375 L 128.875 -164.859375 L 129.109375 -165.09375 L 142.984375 -166.734375 L 99 -117.34375 Z M 21.171875 -87.71875 L 93.125 -164.625 L 110.296875 -165.796875 L 18.109375 -73.609375 Z M 166.03125 -164.625 L 171.671875 -164.390625 L 174.03125 -155.921875 L 135.21875 -118.296875 L 120.40625 -120.40625 Z M 100.890625 -115.9375 L 148.390625 -164.859375 L 163.671875 -167.671875 L 116.875 -117.34375 Z M 143.921875 -105.828125 L 148.625 -105.59375 L 148.859375 -95.484375 L 114.0625 -59.5 L 99.25 -61.84375 Z M 128.875 1.171875 L 171.90625 -42.328125 L 170.734375 -26.578125 L 146.75 -0.703125 Z M 135.921875 -118.296875 L 171.671875 -152.625 L 171.671875 -136.40625 L 154.03125 -117.578125 Z M 113.359375 -57.375 L 148.15625 -92.421875 L 148.390625 -74.78125 L 130.75 -58.328125 Z M 147.453125 -0.9375 L 171.4375 -23.515625 L 171.90625 -7.0625 L 164.390625 -0.46875 Z M 1.171875 -147.921875 L 1.40625 -164.859375 L 18.578125 -164.15625 Z M 172.140625 -117.828125 L 155.453125 -117.109375 L 171.671875 -133.34375 Z M 148.15625 -58.796875 L 133.578125 -59.265625 L 148.625 -74.078125 Z M 171.671875 0 L 166.03125 -0.234375 L 171.671875 -5.640625 Z M 65.609375 -117.828125 L 65.609375 -115.234375 L 67.96875 -117.828125 Z M 65.609375 -117.828125 "/></g></g></g><g fill="#222222" fill-opacity="1"><g transform="translate(702.707308, 202.038914)"><g><path d="M 111.234375 0 L 165.5625 -57.375 L 106.765625 0 L 84.421875 3.53125 L 88.421875 -0.46875 L 73.609375 -0.234375 L 119.234375 -47.265625 L 130.515625 -47.03125 L 130.75 -56.90625 L 159.21875 -87.484375 L 128.171875 -59.03125 L 109.59375 -55.96875 L 156.625 -103 L 164.15625 -92.890625 L 165.796875 -94.53125 L 179.671875 -84.1875 L 177.3125 -82.078125 L 179.203125 -70.78125 L 176.375 -68.203125 L 175.4375 -52.4375 L 141.34375 -17.40625 L 177.5625 -51.5 L 179.671875 -36.21875 L 144.15625 -0.703125 L 125.8125 -1.40625 L 124.40625 0 Z M 10.34375 -120.640625 L 53.625 -165.328125 L 67.734375 -168.140625 L 26.109375 -122.296875 L 72.203125 -163.921875 L 84.890625 -164.859375 L 47.96875 -125.8125 L 90.3125 -163.921875 L 106.765625 -165.09375 L 59.734375 -117.578125 L 58.796875 -117.578125 L 57.859375 -118.296875 L 17.875 -75.71875 L 11.765625 -82.3125 L 7.765625 -89.59375 L 11.046875 -92.421875 L 9.171875 -107 L 11.765625 -109.359375 Z M 141.109375 -105.828125 L 154.03125 -105.828125 L 157.5625 -105.59375 L 111 -58.796875 L 94.53125 -61.609375 L 91.953125 -58.796875 L 74.078125 -59.5 L 55.96875 -56.671875 L 104.890625 -105.59375 L 123.703125 -106.53125 L 123.46875 -106.296875 L 136.640625 -107 L 103 -70.78125 Z M 61.375 -116.40625 L 108.65625 -164.625 L 127.46875 -164.859375 L 127 -164.390625 L 142.28125 -163.4375 L 113.125 -134.046875 L 145.8125 -164.390625 L 158.96875 -162.265625 L 115.234375 -117.109375 L 96.890625 -117.578125 L 96.421875 -117.109375 L 82.78125 -119.234375 L 113.828125 -151.921875 L 78.078125 -117.578125 Z M 19.515625 -1.40625 L 64.203125 -47.03125 L 79.953125 -48.6875 L 53.15625 -20.453125 L 82.78125 -47.734375 L 100.65625 -48.453125 L 51.96875 0.234375 L 35.984375 -2.109375 L 33.625 0.234375 Z M 35.515625 -58.796875 L 28.21875 -64.4375 L 68.4375 -106.53125 L 83.015625 -108.65625 L 47.5 -69.609375 L 86.78125 -105.828125 L 103.953125 -107 L 56.671875 -58.328125 L 38.328125 -59.5 L 37.625 -58.796875 Z M 12.234375 -30.8125 L 27.515625 -46.328125 L 45.390625 -47.734375 L 45.15625 -47.5 L 64.90625 -50.09375 L 15.28125 0 L 12 0.234375 L 12.46875 -12.9375 L 45.15625 -47.5 L 11.515625 -14.8125 Z M 50.796875 1.640625 L 100.421875 -47.5 L 114.296875 -49.15625 L 70.078125 0.46875 Z M 162.96875 -164.625 L 177.5625 -164.625 L 175.4375 -162.03125 L 133.34375 -117.828125 L 117.828125 -119.46875 Z M 131.703125 -115.703125 L 177.5625 -161.09375 L 177.078125 -144.859375 L 151.453125 -117.34375 Z M 11.515625 -142.046875 L 35.28125 -164.625 L 50.796875 -162.734375 L 12.46875 -123.9375 Z M 58.5625 -115 L 58.5625 -105.59375 L 65.84375 -107.9375 L 27.28125 -67.265625 L 19.984375 -75.25 Z M 152.859375 -116.875 L 177.796875 -142.75 L 177.5625 -125.8125 L 169.5625 -117.578125 Z M 154.03125 0.234375 L 143.6875 1.40625 L 177.5625 -32.921875 L 177.078125 -22.8125 Z M 11.515625 -32.453125 L 11.28125 -47.03125 L 25.875 -46.796875 Z M 177.3125 -117.578125 L 171.203125 -117.34375 L 177.3125 -123.9375 Z M 177.3125 -117.578125 "/></g></g></g><g fill="#222222" fill-opacity="1"><g transform="translate(872.698474, 202.038914)"><g><path d="M 111.234375 0 L 165.5625 -57.375 L 106.765625 0 L 84.421875 3.53125 L 88.421875 -0.46875 L 73.609375 -0.234375 L 119.234375 -47.265625 L 130.515625 -47.03125 L 130.75 -56.90625 L 159.21875 -87.484375 L 128.171875 -59.03125 L 109.59375 -55.96875 L 156.625 -103 L 164.15625 -92.890625 L 165.796875 -94.53125 L 179.671875 -84.1875 L 177.3125 -82.078125 L 179.203125 -70.78125 L 176.375 -68.203125 L 175.4375 -52.4375 L 141.34375 -17.40625 L 177.5625 -51.5 L 179.671875 -36.21875 L 144.15625 -0.703125 L 125.8125 -1.40625 L 124.40625 0 Z M 10.34375 -120.640625 L 53.625 -165.328125 L 67.734375 -168.140625 L 26.109375 -122.296875 L 72.203125 -163.921875 L 84.890625 -164.859375 L 47.96875 -125.8125 L 90.3125 -163.921875 L 106.765625 -165.09375 L 59.734375 -117.578125 L 58.796875 -117.578125 L 57.859375 -118.296875 L 17.875 -75.71875 L 11.765625 -82.3125 L 7.765625 -89.59375 L 11.046875 -92.421875 L 9.171875 -107 L 11.765625 -109.359375 Z M 141.109375 -105.828125 L 154.03125 -105.828125 L 157.5625 -105.59375 L 111 -58.796875 L 94.53125 -61.609375 L 91.953125 -58.796875 L 74.078125 -59.5 L 55.96875 -56.671875 L 104.890625 -105.59375 L 123.703125 -106.53125 L 123.46875 -106.296875 L 136.640625 -107 L 103 -70.78125 Z M 61.375 -116.40625 L 108.65625 -164.625 L 127.46875 -164.859375 L 127 -164.390625 L 142.28125 -163.4375 L 113.125 -134.046875 L 145.8125 -164.390625 L 158.96875 -162.265625 L 115.234375 -117.109375 L 96.890625 -117.578125 L 96.421875 -117.109375 L 82.78125 -119.234375 L 113.828125 -151.921875 L 78.078125 -117.578125 Z M 19.515625 -1.40625 L 64.203125 -47.03125 L 79.953125 -48.6875 L 53.15625 -20.453125 L 82.78125 -47.734375 L 100.65625 -48.453125 L 51.96875 0.234375 L 35.984375 -2.109375 L 33.625 0.234375 Z M 35.515625 -58.796875 L 28.21875 -64.4375 L 68.4375 -106.53125 L 83.015625 -108.65625 L 47.5 -69.609375 L 86.78125 -105.828125 L 103.953125 -107 L 56.671875 -58.328125 L 38.328125 -59.5 L 37.625 -58.796875 Z M 12.234375 -30.8125 L 27.515625 -46.328125 L 45.390625 -47.734375 L 45.15625 -47.5 L 64.90625 -50.09375 L 15.28125 0 L 12 0.234375 L 12.46875 -12.9375 L 45.15625 -47.5 L 11.515625 -14.8125 Z M 50.796875 1.640625 L 100.421875 -47.5 L 114.296875 -49.15625 L 70.078125 0.46875 Z M 162.96875 -164.625 L 177.5625 -164.625 L 175.4375 -162.03125 L 133.34375 -117.828125 L 117.828125 -119.46875 Z M 131.703125 -115.703125 L 177.5625 -161.09375 L 177.078125 -144.859375 L 151.453125 -117.34375 Z M 11.515625 -142.046875 L 35.28125 -164.625 L 50.796875 -162.734375 L 12.46875 -123.9375 Z M 58.5625 -115 L 58.5625 -105.59375 L 65.84375 -107.9375 L 27.28125 -67.265625 L 19.984375 -75.25 Z M 152.859375 -116.875 L 177.796875 -142.75 L 177.5625 -125.8125 L 169.5625 -117.578125 Z M 154.03125 0.234375 L 143.6875 1.40625 L 177.5625 -32.921875 L 177.078125 -22.8125 Z M 11.515625 -32.453125 L 11.28125 -47.03125 L 25.875 -46.796875 Z M 177.3125 -117.578125 L 171.203125 -117.34375 L 177.3125 -123.9375 Z M 177.3125 -117.578125 "/></g></g></g></g></g><g transform="matrix(1, 0, 0, 1, 694, 895)"><g clip-path="url(#4a646d2f95)"><g fill="#000000" fill-opacity="1"><g transform="translate(1.985492, 24.296679)"><g><path d="M 13.84375 0 L 1.625 0 L 1.625 -18.3125 L 13.84375 -18.3125 L 13.84375 -15.21875 L 5.09375 -15.21875 L 5.09375 -10.703125 L 12.9375 -10.703125 L 12.9375 -7.625 L 5.09375 -7.625 L 5.09375 -3.09375 L 13.84375 -3.09375 Z M 13.84375 0 "/></g></g></g><g fill="#000000" fill-opacity="1"><g transform="translate(15.713633, 24.296679)"><g><path d="M 8.90625 0.34375 C 8.019531 0.34375 7.125 0.234375 6.21875 0.015625 C 5.320312 -0.203125 4.488281 -0.550781 3.71875 -1.03125 C 2.945312 -1.507812 2.300781 -2.148438 1.78125 -2.953125 C 1.269531 -3.765625 0.957031 -4.765625 0.84375 -5.953125 L 4.421875 -5.953125 C 4.628906 -5.085938 4.960938 -4.410156 5.421875 -3.921875 C 5.890625 -3.429688 6.429688 -3.085938 7.046875 -2.890625 C 7.660156 -2.703125 8.285156 -2.609375 8.921875 -2.609375 C 9.867188 -2.609375 10.660156 -2.804688 11.296875 -3.203125 C 11.941406 -3.609375 12.265625 -4.253906 12.265625 -5.140625 C 12.265625 -5.773438 12.054688 -6.269531 11.640625 -6.625 C 11.222656 -6.976562 10.679688 -7.253906 10.015625 -7.453125 C 9.359375 -7.648438 8.632812 -7.828125 7.84375 -7.984375 C 7.09375 -8.160156 6.34375 -8.351562 5.59375 -8.5625 C 4.84375 -8.769531 4.148438 -9.054688 3.515625 -9.421875 C 2.878906 -9.796875 2.375 -10.289062 2 -10.90625 C 1.625 -11.519531 1.4375 -12.304688 1.4375 -13.265625 C 1.4375 -14.453125 1.71875 -15.441406 2.28125 -16.234375 C 2.851562 -17.023438 3.628906 -17.625 4.609375 -18.03125 C 5.585938 -18.4375 6.691406 -18.640625 7.921875 -18.640625 C 9.109375 -18.640625 10.21875 -18.429688 11.25 -18.015625 C 12.289062 -17.609375 13.171875 -16.976562 13.890625 -16.125 C 14.609375 -15.28125 15.066406 -14.191406 15.265625 -12.859375 L 11.734375 -12.859375 C 11.515625 -13.835938 11.046875 -14.554688 10.328125 -15.015625 C 9.617188 -15.472656 8.789062 -15.703125 7.84375 -15.703125 C 6.976562 -15.703125 6.265625 -15.519531 5.703125 -15.15625 C 5.148438 -14.789062 4.875 -14.257812 4.875 -13.5625 C 4.875 -13 5.066406 -12.554688 5.453125 -12.234375 C 5.847656 -11.921875 6.363281 -11.671875 7 -11.484375 C 7.644531 -11.296875 8.335938 -11.113281 9.078125 -10.9375 C 9.835938 -10.78125 10.601562 -10.585938 11.375 -10.359375 C 12.15625 -10.128906 12.878906 -9.816406 13.546875 -9.421875 C 14.210938 -9.023438 14.742188 -8.5 15.140625 -7.84375 C 15.546875 -7.1875 15.75 -6.335938 15.75 -5.296875 C 15.75 -3.578125 15.144531 -2.207031 13.9375 -1.1875 C 12.738281 -0.164062 11.0625 0.34375 8.90625 0.34375 Z M 8.90625 0.34375 "/></g></g></g><g fill="#000000" fill-opacity="1"><g transform="translate(31.241795, 24.296679)"><g><path d="M 9.28125 0 L 5.828125 0 L 5.828125 -15.21875 L 0.234375 -15.21875 L 0.234375 -18.3125 L 14.859375 -18.3125 L 14.859375 -15.21875 L 9.28125 -15.21875 Z M 9.28125 0 "/></g></g></g><g fill="#000000" fill-opacity="1"><g transform="translate(45.185939, 24.296679)"><g/></g></g><g fill="#000000" fill-opacity="1"><g transform="translate(50.44199, 24.296679)"><g><path d="M 14.421875 0 L 1.3125 0 L 1.3125 -2.609375 L 7.078125 -7.65625 C 8.171875 -8.613281 9 -9.507812 9.5625 -10.34375 C 10.132812 -11.175781 10.421875 -12.015625 10.421875 -12.859375 C 10.421875 -13.691406 10.195312 -14.367188 9.75 -14.890625 C 9.3125 -15.410156 8.613281 -15.671875 7.65625 -15.671875 C 6.664062 -15.671875 5.894531 -15.363281 5.34375 -14.75 C 4.789062 -14.144531 4.472656 -13.1875 4.390625 -11.875 L 1.203125 -11.875 C 1.273438 -14.050781 1.867188 -15.71875 2.984375 -16.875 C 4.097656 -18.039062 5.664062 -18.625 7.6875 -18.625 C 8.832031 -18.625 9.851562 -18.398438 10.75 -17.953125 C 11.644531 -17.515625 12.34375 -16.890625 12.84375 -16.078125 C 13.351562 -15.273438 13.609375 -14.304688 13.609375 -13.171875 C 13.609375 -12.117188 13.378906 -11.128906 12.921875 -10.203125 C 12.460938 -9.273438 11.894531 -8.425781 11.21875 -7.65625 C 10.550781 -6.882812 9.898438 -6.210938 9.265625 -5.640625 L 6.4375 -3.09375 L 14.421875 -3.09375 Z M 14.421875 0 "/></g></g></g><g fill="#000000" fill-opacity="1"><g transform="translate(64.818142, 24.296679)"><g><path d="M 8.09375 0.34375 C 6.71875 0.34375 5.523438 0.0195312 4.515625 -0.625 C 3.503906 -1.28125 2.726562 -2.304688 2.1875 -3.703125 C 1.644531 -5.109375 1.375 -6.945312 1.375 -9.21875 C 1.375 -11.457031 1.640625 -13.269531 2.171875 -14.65625 C 2.703125 -16.039062 3.460938 -17.050781 4.453125 -17.6875 C 5.453125 -18.320312 6.628906 -18.640625 7.984375 -18.640625 C 9.378906 -18.640625 10.578125 -18.316406 11.578125 -17.671875 C 12.578125 -17.023438 13.347656 -16 13.890625 -14.59375 C 14.441406 -13.195312 14.71875 -11.363281 14.71875 -9.09375 C 14.71875 -6.875 14.445312 -5.066406 13.90625 -3.671875 C 13.375 -2.273438 12.613281 -1.253906 11.625 -0.609375 C 10.644531 0.0234375 9.46875 0.34375 8.09375 0.34375 Z M 8.015625 -2.765625 C 8.648438 -2.765625 9.210938 -2.953125 9.703125 -3.328125 C 10.191406 -3.703125 10.570312 -4.351562 10.84375 -5.28125 C 11.113281 -6.207031 11.25 -7.492188 11.25 -9.140625 C 11.25 -10.785156 11.109375 -12.070312 10.828125 -13 C 10.554688 -13.9375 10.171875 -14.59375 9.671875 -14.96875 C 9.171875 -15.34375 8.601562 -15.53125 7.96875 -15.53125 C 7.332031 -15.53125 6.773438 -15.335938 6.296875 -14.953125 C 5.828125 -14.566406 5.460938 -13.910156 5.203125 -12.984375 C 4.953125 -12.066406 4.828125 -10.796875 4.828125 -9.171875 C 4.828125 -7.523438 4.957031 -6.234375 5.21875 -5.296875 C 5.476562 -4.359375 5.847656 -3.703125 6.328125 -3.328125 C 6.816406 -2.953125 7.378906 -2.765625 8.015625 -2.765625 Z M 8.015625 -2.765625 "/></g></g></g><g fill="#000000" fill-opacity="1"><g transform="translate(79.72228, 24.296679)"><g><path d="M 14.421875 0 L 1.3125 0 L 1.3125 -2.609375 L 7.078125 -7.65625 C 8.171875 -8.613281 9 -9.507812 9.5625 -10.34375 C 10.132812 -11.175781 10.421875 -12.015625 10.421875 -12.859375 C 10.421875 -13.691406 10.195312 -14.367188 9.75 -14.890625 C 9.3125 -15.410156 8.613281 -15.671875 7.65625 -15.671875 C 6.664062 -15.671875 5.894531 -15.363281 5.34375 -14.75 C 4.789062 -14.144531 4.472656 -13.1875 4.390625 -11.875 L 1.203125 -11.875 C 1.273438 -14.050781 1.867188 -15.71875 2.984375 -16.875 C 4.097656 -18.039062 5.664062 -18.625 7.6875 -18.625 C 8.832031 -18.625 9.851562 -18.398438 10.75 -17.953125 C 11.644531 -17.515625 12.34375 -16.890625 12.84375 -16.078125 C 13.351562 -15.273438 13.609375 -14.304688 13.609375 -13.171875 C 13.609375 -12.117188 13.378906 -11.128906 12.921875 -10.203125 C 12.460938 -9.273438 11.894531 -8.425781 11.21875 -7.65625 C 10.550781 -6.882812 9.898438 -6.210938 9.265625 -5.640625 L 6.4375 -3.09375 L 14.421875 -3.09375 Z M 14.421875 0 "/></g></g></g><g fill="#000000" fill-opacity="1"><g transform="translate(94.098432, 24.296679)"><g><path d="M 8.234375 0.34375 C 6.003906 0.34375 4.289062 -0.441406 3.09375 -2.015625 C 1.90625 -3.585938 1.3125 -5.800781 1.3125 -8.65625 C 1.3125 -10.738281 1.578125 -12.523438 2.109375 -14.015625 C 2.648438 -15.503906 3.441406 -16.644531 4.484375 -17.4375 C 5.523438 -18.238281 6.804688 -18.640625 8.328125 -18.640625 C 10.117188 -18.640625 11.550781 -18.148438 12.625 -17.171875 C 13.695312 -16.191406 14.335938 -14.867188 14.546875 -13.203125 L 11.453125 -13.203125 C 11.066406 -14.847656 10.023438 -15.671875 8.328125 -15.671875 C 6.953125 -15.671875 5.972656 -15.171875 5.390625 -14.171875 C 4.816406 -13.171875 4.53125 -11.820312 4.53125 -10.125 C 5.144531 -10.945312 5.816406 -11.484375 6.546875 -11.734375 C 7.285156 -11.992188 7.988281 -12.125 8.65625 -12.125 C 9.8125 -12.125 10.832031 -11.878906 11.71875 -11.390625 C 12.613281 -10.898438 13.304688 -10.207031 13.796875 -9.3125 C 14.296875 -8.414062 14.546875 -7.351562 14.546875 -6.125 C 14.546875 -4.851562 14.273438 -3.726562 13.734375 -2.75 C 13.203125 -1.78125 12.457031 -1.019531 11.5 -0.46875 C 10.550781 0.0703125 9.460938 0.34375 8.234375 0.34375 Z M 8.1875 -2.609375 C 9.125 -2.609375 9.84375 -2.941406 10.34375 -3.609375 C 10.84375 -4.273438 11.09375 -5.097656 11.09375 -6.078125 C 11.09375 -7.066406 10.835938 -7.867188 10.328125 -8.484375 C 9.828125 -9.097656 9.113281 -9.40625 8.1875 -9.40625 C 7.207031 -9.40625 6.425781 -9.097656 5.84375 -8.484375 C 5.269531 -7.867188 4.984375 -7.066406 4.984375 -6.078125 C 4.984375 -5.066406 5.269531 -4.234375 5.84375 -3.578125 C 6.425781 -2.929688 7.207031 -2.609375 8.1875 -2.609375 Z M 8.1875 -2.609375 "/></g></g></g></g></g><g transform="matrix(1, 0, 0, 1, 673, 841)"><g clip-path="url(#d5f632a8ea)"><g fill="#000000" fill-opacity="1"><g transform="translate(1.864653, 46.130197)"><g><path d="M 23.703125 0 L 3.015625 0 L 3.015625 -33.8125 L 9.390625 -33.8125 L 9.390625 -5.71875 L 23.703125 -5.71875 Z M 23.703125 0 "/></g></g></g><g fill="#000000" fill-opacity="1"><g transform="translate(26.050915, 46.130197)"><g><path d="M 7 0 L 0.3125 0 L 12.234375 -33.8125 L 19.234375 -33.8125 L 31.15625 0 L 24.453125 0 L 22.15625 -6.953125 L 9.265625 -6.953125 Z M 15.734375 -26.859375 L 11.078125 -12.546875 L 20.390625 -12.546875 Z M 15.734375 -26.859375 "/></g></g></g><g fill="#000000" fill-opacity="1"><g transform="translate(57.501932, 46.130197)"><g><path d="M 9.390625 0 L 3.015625 0 L 3.015625 -33.8125 L 10.1875 -33.8125 L 24.0625 -9.609375 L 24.0625 -33.8125 L 30.4375 -33.8125 L 30.4375 0 L 23.21875 0 L 9.390625 -24.234375 Z M 9.390625 0 "/></g></g></g><g fill="#000000" fill-opacity="1"><g transform="translate(90.946326, 46.130197)"><g><path d="M 9.390625 0 L 3.015625 0 L 3.015625 -33.8125 L 9.390625 -33.8125 L 9.390625 -18.78125 L 21.3125 -33.8125 L 29.109375 -33.8125 L 15.640625 -17.5 L 29.5625 0 L 21.625 0 L 9.390625 -15.6875 Z M 9.390625 0 "/></g></g></g><g fill="#000000" fill-opacity="1"><g transform="translate(120.625476, 46.130197)"><g><path d="M 7 0 L 0.3125 0 L 12.234375 -33.8125 L 19.234375 -33.8125 L 31.15625 0 L 24.453125 0 L 22.15625 -6.953125 L 9.265625 -6.953125 Z M 15.734375 -26.859375 L 11.078125 -12.546875 L 20.390625 -12.546875 Z M 15.734375 -26.859375 "/></g></g></g></g></g></svg>